# xmcd
#
# Track frame offsets: 
#        150
#        14490
#        30555
#        45616
#        60330
#        75320
#        93526
#        108762
#        124280
#        140432
#        155653
#        174168
#        197410
#        215650
#        234734
#        248346
#        263256
#        275574
#        290524
#        306114
#        320339
#
# Disc length: 4493 seconds
#
# Revision: 0
# Processed by: cddbd v1.5.2PL0 Copyright (c) Steve Scherf et al.
# Submitted via: ExactAudioCopy v0.99pb4
#
DISCID=15118b15
DTITLE=шансон - Дорожные байки 10
DYEAR=1900
DGENRE=
TTITLE0=Михаил Шуфутинский - От пункта Я до пункта Ты
TTITLE1=Гриша Заречный - Центурии
TTITLE2=Алексей Гарнизов - Мчится поезд
TTITLE3=Гр. М. Круга «Попутчик» - Наша судьба
TTITLE4=Роман Слатин - Пани Варшава
TTITLE5=Жора Гриф - Кольцевая
TTITLE6=Влад Ясень - Цвет металлики
TTITLE7=Сергей Матвеев - Весна
TTITLE8=Павел Беккерман, Марина Соболева - С ветерком
TTITLE9=Юрий Соловей - Тополя
TTITLE10=Гриша Заречный - Короли
TTITLE11=Сергей Кама - Надоело
TTITLE12=Стас Назимов - Синий огонёк
TTITLE13=Женя Томилин - Водила, трогай
TTITLE14=Яша Боярский - Пьянота и Тойота
TTITLE15=Олег Пахомов - Водила-брат
TTITLE16=Вадим Доморощин - За рулём
TTITLE17=Михаил Загребаев - Водилам
TTITLE18=Андрей Широков - Прокатила
TTITLE19=Алексей Дворников - Не губи меня
TTITLE20=Алексей Чарный - Лист
EXTD=
EXTT0=
EXTT1=
EXTT2=
EXTT3=
EXTT4=
EXTT5=
EXTT6=
EXTT7=
EXTT8=
EXTT9=
EXTT10=
EXTT11=
EXTT12=
EXTT13=
EXTT14=
EXTT15=
EXTT16=
EXTT17=
EXTT18=
EXTT19=
EXTT20=
PLAYORDER=
